Coordinates
version=1
nRows=11
nColumns=36
inDegrees=yes

Units are S.I. units (second, meters, Newtons, ...)
If the header above contains a line with 'inDegrees', this indicates whether rotational values are in degrees (yes) or radians (no).

endheader
time	pelvis_tilt	pelvis_list	pelvis_rotation	pelvis_tx	pelvis_ty	pelvis_tz	hip_flexion_r	hip_adduction_r	hip_rotation_r	knee_angle_r	knee_angle_r_beta	ankle_angle_r	subtalar_angle_r	mtp_angle_r	hip_flexion_l	hip_adduction_l	hip_rotation_l	knee_angle_l	knee_angle_l_beta	ankle_angle_l	subtalar_angle_l	mtp_angle_l	lumbar_extension	lumbar_bending	lumbar_rotation	arm_flex_r	arm_add_r	arm_rot_r	elbow_flex_r	pro_sup_r	arm_flex_l	arm_add_l	arm_rot_l	elbow_flex_l	pro_sup_l
      0.00000000	     -0.33837259	     -1.42434098	     -0.80939327	     -0.77729077	      1.31757184	     -0.04784902	     -0.04092952	      2.55174902	      8.06931288	      9.95246348	      0.17370326	      4.40929490	    -14.14977664	     -5.57662361	     -0.78392477	     -2.54819783	      5.12795647	      9.30493810	      0.16240181	      8.16110324	     -9.75542302	     -5.57662361	    -19.34687360	      2.13953379	     -0.50608346	      3.03452170	     -8.31472083	     11.16192539	     29.30083356	     73.74027530	      0.38514535	     -7.86132832	     13.18018205	     26.90092568	     65.79599131
      0.01694910	     -4.07783807	     -1.26801149	     -1.26051613	     -0.77421870	      1.30677689	     -0.04790174	      4.26262335	      2.49761683	     10.25779306	     10.71264362	      0.18697090	      6.88029753	    -10.74085786	     -6.39598489	      4.26287031	     -1.90411495	      6.63496813	     10.63228425	      0.18556837	      8.04809338	     -9.18990441	     -6.39598489	    -14.11023621	      2.28703304	     -0.64956521	      1.78095348	     -7.79322434	      8.69757362	     27.57768443	     75.32088264	     -1.69757607	     -6.54617886	      7.12321645	     25.26028012	     68.69566988
      0.03389830	     -5.05981702	     -1.13234779	     -1.74025653	     -0.77339875	      1.30521386	     -0.04694923	      5.12202232	      2.31156209	     10.44147761	     10.46173466	      0.18259172	      7.64908215	    -10.36649329	     -6.48537440	      5.45060122	     -2.02342865	      6.26126228	     11.03551170	      0.19260601	      7.89622944	     -8.90281739	     -6.48537440	    -13.26877504	      1.97975306	     -0.62211701	      0.01121738	     -7.41522012	      8.51680667	     27.88411509	     73.81487408	     -3.05677675	     -7.22938636	      7.24418879	     25.46891922	     68.30175133
      0.05084750	     -5.41572968	     -1.04892909	     -1.68619868	     -0.77342787	      1.29896368	     -0.04655476	      5.83924331	      2.36817409	     10.43047000	     10.98169471	      0.19166673	      8.79541653	    -10.29199725	     -6.58078943	      6.08546724	     -1.91936615	      6.64467519	     11.63558448	      0.20307926	      8.33788790	     -9.82583648	     -6.58078943	    -13.53035720	      1.73685383	     -0.53445877	     -1.43890064	     -7.52845259	      9.19347088	     29.27334877	     71.45628065	     -3.72294737	     -8.32785267	      9.50800096	     25.38224416	     70.55275554
      0.06779660	     -5.67613951	     -1.05402673	     -1.74527096	     -0.77309104	      1.29990434	     -0.04656538	      6.33683102	      2.47727618	     10.24255188	     11.36842413	      0.19841643	      9.52899870	    -10.27628550	     -6.76357091	      6.58632505	     -1.94959495	      6.68623493	     12.09919883	      0.21117086	      9.17260283	     -9.98156070	     -6.76357091	    -14.22026560	      1.84484575	     -0.54549853	     -2.77440160	     -7.92185811	      9.22773839	     30.30475892	     69.86262734	     -4.42035952	     -8.65896742	      9.46576495	     25.63149405	     69.55410307
      0.08474580	     -6.16165520	     -0.96362649	     -1.68052500	     -0.77264199	      1.30048970	     -0.04628026	      7.39559380	      2.53834101	     10.16244382	     12.31845202	      0.21499755	     10.07068428	    -10.90773483	     -6.82925387	      7.49083111	     -1.85930734	      6.79886279	     12.73887607	      0.22233533	      9.62510744	    -10.60283795	     -6.82925387	    -15.09803512	      1.73812536	      0.05979167	     -3.33322616	     -8.56644700	     10.08643562	     30.92563055	     69.09878267	     -4.23447105	     -8.92712238	      9.91013190	     25.29141524	     69.17412865
      0.10169490	     -6.58036341	     -0.82983865	     -1.67227759	     -0.77247800	      1.29716618	     -0.04583735	      8.53969006	      2.52354902	     10.09230529	     13.63953084	      0.23805472	     10.37825487	    -11.54508725	     -6.92391189	      8.29199318	     -1.71120299	      6.76138738	     13.42363769	      0.23428668	     10.05458682	    -10.83592144	     -6.92391189	    -16.08356509	      1.68873308	      0.55111273	     -3.80046884	     -9.33700906	     11.17925220	     31.51819243	     68.32393466	     -4.17541056	     -9.02177635	     10.58263301	     25.13039532	     68.57954630
      0.11864410	     -7.56836027	     -0.61150511	     -1.65716993	     -0.77203478	      1.29582040	     -0.04576930	     10.41375090	      2.51207421	     10.23746831	     15.06771675	      0.26298127	     10.51273330	    -12.49582273	     -6.99461777	     10.14233459	     -1.44657017	      6.68429890	     14.84274418	      0.25905476	     10.41912780	    -11.35449199	     -6.99461777	    -16.45027541	      1.28553473	      0.80138133	     -3.93942112	    -10.26274344	     14.29159822	     32.02759317	     68.06067045	     -3.81339843	     -9.40611266	     13.23837351	     24.37303957	     68.38870138
      0.13559320	     -8.17730650	     -0.42760708	     -1.75675913	     -0.77188959	      1.28828667	     -0.04549087	     11.99673163	      2.56977136	     10.53923348	     16.81007825	      0.29339121	     10.85011005	    -13.44046591	     -7.03236123	     11.62512944	     -1.26627842	      6.35071848	     16.46073314	      0.28729399	     11.13283084	    -11.51356620	     -7.03236123	    -17.45632889	      0.95913033	      0.90757589	     -4.24703420	    -10.91569378	     15.19701964	     32.45439271	     67.50697828	     -3.86830802	     -9.68984388	     13.94422743	     24.80767417	     67.39459661
      0.15254240	     -8.94472549	     -0.26606494	     -1.94433552	     -0.77209924	      1.28062760	     -0.04519424	     14.12074082	      2.77209769	     10.75704325	     19.16212476	      0.33444217	     11.19328136	    -14.62173494	     -7.10469591	     13.54957480	     -1.15883061	      5.76096817	     18.54992883	      0.32375733	     12.17280553	    -11.56250535	     -7.10469591	    -18.43622516	      0.54298576	      1.03852310	     -4.28440805	    -11.56315727	     16.33886703	     33.37071295	     67.33471560	     -3.83416203	    -10.06131829	     15.04269094	     25.22078220	     65.47114178
      0.16949150	     -9.67921260	     -0.06343189	     -2.15392150	     -0.77211704	      1.27323931	     -0.04469702	     16.60141182	      2.87680651	     10.57681555	     22.29005069	      0.38903477	     12.10885373	    -15.11850182	     -7.12573118	     15.48829404	     -0.99617196	      5.37146522	     20.83079841	      0.36356602	     13.37621913	    -11.63218146	     -7.12573118	    -19.48483398	      0.21581409	      0.85244299	     -4.52776814	    -11.88682057	     15.84275892	     34.57522409	     66.82094094	     -3.98587924	    -10.15897092	     14.14857691	     25.85842418	     64.38144774
